<?xml version="1.0" encoding="UTF-8"?>
<svg xmlns="http://www.w3.org/2000/svg" xmlns:xlink="http://www.w3.org/1999/xlink" width="64pt" height="64pt" viewBox="0 0 64 64" version="1.1">
<defs>
<linearGradient id="linear0" gradientUnits="userSpaceOnUse" x1="86" y1="24.30306" x2="86" y2="147.84206" gradientTransform="matrix(0.372093,0,0,0.372093,0,0)">
<stop offset="0" style="stop-color:rgb(100%,55.294118%,30.196078%);stop-opacity:1;"/>
<stop offset="1" style="stop-color:rgb(95.686275%,28.627451%,30.588235%);stop-opacity:1;"/>
</linearGradient>
<linearGradient id="linear1" gradientUnits="userSpaceOnUse" x1="122.49088" y1="95.89269" x2="122.49088" y2="134.88831" gradientTransform="matrix(0.372093,0,0,0.372093,0,0)">
<stop offset="0" style="stop-color:rgb(100%,83.529412%,74.117647%);stop-opacity:1;"/>
<stop offset="1" style="stop-color:rgb(98.039216%,70.196078%,70.588235%);stop-opacity:1;"/>
</linearGradient>
<linearGradient id="linear2" gradientUnits="userSpaceOnUse" x1="91.59269" y1="95.89269" x2="91.59269" y2="134.88831" gradientTransform="matrix(0.372093,0,0,0.372093,0,0)">
<stop offset="0" style="stop-color:rgb(100%,83.529412%,74.117647%);stop-opacity:1;"/>
<stop offset="1" style="stop-color:rgb(98.039216%,70.196078%,70.588235%);stop-opacity:1;"/>
</linearGradient>
</defs>
<g id="surface9525033">
<path style=" stroke:none;fill-rule:nonzero;fill:url(#linear0);" d="M 51 8 L 13 8 C 10.199219 8 8 10.199219 8 13 L 8 51 C 8 53.800781 10.199219 56 13 56 L 51 56 C 53.800781 56 56 53.800781 56 51 L 56 13 C 56 10.199219 53.800781 8 51 8 Z M 54 51 C 54 52.699219 52.699219 54 51 54 L 13 54 C 11.300781 54 10 52.699219 10 51 L 10 13 C 10 11.300781 11.300781 10 13 10 L 51 10 C 52.699219 10 54 11.300781 54 13 Z M 54 51 "/>
<path style=" stroke:none;fill-rule:nonzero;fill:url(#linear1);" d="M 46.699219 41.5 L 45.898438 41.199219 C 44.5 40.601562 43.898438 40.199219 43.898438 39.199219 C 43.898438 38.398438 44.5 37.800781 45.398438 37.800781 C 46.199219 37.800781 46.699219 38.101562 47.199219 38.800781 C 47.300781 39 47.601562 39.101562 47.898438 38.898438 L 49.601562 37.800781 C 49.800781 37.699219 49.898438 37.300781 49.800781 37.101562 C 48.800781 35.601562 47.398438 35 45.5 35 C 42.601562 35 40.800781 36.800781 40.800781 39.199219 C 40.800781 41.800781 42.300781 43.101562 44.699219 44 L 45.5 44.300781 C 47 44.898438 47.699219 45.300781 47.699219 46.398438 C 47.699219 47.300781 47 48 45.699219 48 C 44.300781 48 43.601562 47.199219 42.898438 46.199219 C 42.699219 46 42.398438 45.898438 42.199219 46.101562 L 40.5 47.199219 C 40.300781 47.300781 40.199219 47.601562 40.300781 47.898438 C 41.300781 49.601562 42.898438 50.898438 45.699219 50.898438 C 48.800781 50.898438 51 49.300781 51 46.398438 C 51 43.800781 49.5 42.601562 46.699219 41.5 Z M 46.699219 41.5 "/>
<path style=" stroke:none;fill-rule:nonzero;fill:url(#linear2);" d="M 38.5 35 L 36.199219 35 C 35.898438 35 35.699219 35.199219 35.699219 35.5 L 35.699219 45.601562 C 35.699219 47.199219 35.101562 47.601562 34 47.601562 C 33.101562 47.601562 32.398438 47.101562 31.898438 46.398438 C 31.800781 46.199219 31.5 46.101562 31.199219 46.300781 L 29.398438 47.398438 C 29.199219 47.5 29.101562 47.898438 29.199219 48.101562 C 30.101562 49.601562 31.800781 51 34.199219 51 C 37.101562 51 39 49.5 39 46.101562 L 39 35.5 C 39 35.199219 38.800781 35 38.5 35 Z M 38.5 35 "/>
</g>
</svg>
