<?xml version="1.0" encoding="UTF-8"?>
<svg xmlns="http://www.w3.org/2000/svg" xmlns:xlink="http://www.w3.org/1999/xlink" width="64pt" height="64pt" viewBox="0 0 64 64" version="1.1">
<defs>
<linearGradient id="linear0" gradientUnits="userSpaceOnUse" x1="86" y1="67.75994" x2="86" y2="98.69038" >
<stop offset="0" style="stop-color:rgb(98.823529%,95.294118%,99.215686%);stop-opacity:1;"/>
<stop offset="1" style="stop-color:rgb(43.137255%,85.490196%,98.823529%);stop-opacity:1;"/>
</linearGradient>
<linearGradient id="linear1" gradientUnits="userSpaceOnUse" x1="86" y1="19.95738" x2="86" y2="143.62" gradientTransform="matrix(0.372093,0,0,0.372093,0,0)">
<stop offset="0" style="stop-color:rgb(87.843137%,56.470588%,94.117647%);stop-opacity:1;"/>
<stop offset="1" style="stop-color:rgb(1.960784%,74.117647%,96.078431%);stop-opacity:1;"/>
</linearGradient>
</defs>
<g id="surface14422746">
<path style=" stroke:none;fill-rule:nonzero;fill:url(#linear0);" d="M 38 32 C 38 35.3125 35.3125 38 32 38 C 28.6875 38 26 35.3125 26 32 C 26 28.6875 28.6875 26 32 26 C 35.3125 26 38 28.6875 38 32 Z M 38 32 "/>
<path style=" stroke:none;fill-rule:nonzero;fill:url(#linear1);" d="M 58 32 C 58 28.242188 53.757812 24.984375 47.148438 23.007812 C 47.367188 21.976562 47.554688 20.964844 47.671875 19.992188 C 48.328125 14.511719 47.1875 10.671875 44.460938 9.179688 C 41.730469 7.691406 37.886719 8.808594 33.628906 12.324219 C 33.085938 12.773438 32.542969 13.265625 32 13.777344 C 31.457031 13.261719 30.914062 12.773438 30.371094 12.324219 C 26.113281 8.808594 22.265625 7.691406 19.539062 9.179688 C 16.8125 10.667969 15.671875 14.507812 16.328125 19.992188 C 16.445312 20.964844 16.632812 21.976562 16.851562 23.007812 C 10.242188 24.984375 6 28.242188 6 32 C 6 35.757812 10.242188 39.015625 16.851562 40.992188 C 16.632812 42.023438 16.445312 43.035156 16.328125 44.007812 C 15.671875 49.488281 16.8125 53.328125 19.539062 54.820312 C 20.328125 55.25 21.210938 55.464844 22.167969 55.464844 C 24.523438 55.464844 27.34375 54.175781 30.371094 51.675781 C 30.914062 51.226562 31.457031 50.738281 32 50.226562 C 32.542969 50.738281 33.085938 51.226562 33.628906 51.675781 C 36.65625 54.175781 39.476562 55.464844 41.832031 55.464844 C 42.789062 55.464844 43.671875 55.25 44.460938 54.820312 C 47.1875 53.332031 48.328125 49.492188 47.671875 44.007812 C 47.554688 43.035156 47.367188 42.023438 47.148438 40.992188 C 53.757812 39.015625 58 35.757812 58 32 Z M 34.902344 13.867188 C 38.433594 10.949219 41.566406 9.878906 43.5 10.933594 C 45.433594 11.988281 46.230469 15.203125 45.683594 19.753906 C 45.578125 20.632812 45.410156 21.550781 45.214844 22.480469 C 43.097656 21.964844 40.785156 21.566406 38.324219 21.316406 C 36.761719 19.039062 35.109375 16.964844 33.414062 15.183594 C 33.910156 14.71875 34.40625 14.277344 34.902344 13.867188 Z M 39.898438 36.3125 C 39.046875 37.875 38.140625 39.367188 37.195312 40.785156 C 35.546875 40.925781 33.8125 41 32 41 C 30.1875 41 28.453125 40.925781 26.800781 40.785156 C 25.859375 39.367188 24.953125 37.875 24.101562 36.3125 C 23.316406 34.878906 22.601562 33.433594 21.957031 32 C 22.601562 30.566406 23.316406 29.121094 24.101562 27.6875 C 24.953125 26.125 25.859375 24.632812 26.800781 23.214844 C 28.453125 23.074219 30.1875 23 32 23 C 33.8125 23 35.546875 23.074219 37.199219 23.214844 C 38.140625 24.632812 39.046875 26.125 39.898438 27.6875 C 40.683594 29.121094 41.398438 30.566406 42.042969 32 C 41.398438 33.433594 40.683594 34.878906 39.898438 36.3125 Z M 43.078125 34.488281 C 43.757812 36.226562 44.316406 37.929688 44.753906 39.582031 C 43.210938 39.960938 41.542969 40.277344 39.746094 40.511719 C 40.402344 39.460938 41.046875 38.386719 41.652344 37.269531 C 42.160156 36.347656 42.628906 35.414062 43.078125 34.488281 Z M 32 47.402344 C 30.726562 46.0625 29.476562 44.539062 28.269531 42.890625 C 29.488281 42.960938 30.730469 43 32 43 C 33.269531 43 34.511719 42.960938 35.730469 42.890625 C 34.523438 44.539062 33.273438 46.0625 32 47.402344 Z M 24.253906 40.511719 C 22.453125 40.277344 20.789062 39.960938 19.246094 39.582031 C 19.683594 37.929688 20.242188 36.226562 20.921875 34.488281 C 21.371094 35.417969 21.839844 36.347656 22.34375 37.273438 C 22.953125 38.386719 23.597656 39.460938 24.253906 40.511719 Z M 20.921875 29.511719 C 20.242188 27.773438 19.683594 26.066406 19.246094 24.417969 C 20.789062 24.039062 22.457031 23.722656 24.253906 23.488281 C 23.597656 24.539062 22.953125 25.613281 22.347656 26.730469 C 21.839844 27.652344 21.371094 28.585938 20.921875 29.511719 Z M 32 16.597656 C 33.273438 17.9375 34.523438 19.460938 35.730469 21.109375 C 34.511719 21.039062 33.269531 21 32 21 C 30.730469 21 29.488281 21.039062 28.269531 21.109375 C 29.476562 19.460938 30.726562 17.9375 32 16.597656 Z M 41.65625 26.730469 C 41.046875 25.613281 40.402344 24.539062 39.746094 23.488281 C 41.546875 23.722656 43.210938 24.039062 44.753906 24.417969 C 44.316406 26.070312 43.757812 27.773438 43.078125 29.511719 C 42.628906 28.585938 42.160156 27.652344 41.65625 26.730469 Z M 18.316406 19.753906 C 17.769531 15.203125 18.566406 11.988281 20.5 10.9375 C 20.988281 10.667969 21.550781 10.539062 22.179688 10.539062 C 24.039062 10.539062 26.457031 11.6875 29.097656 13.867188 C 29.59375 14.277344 30.089844 14.71875 30.585938 15.1875 C 28.894531 16.96875 27.242188 19.042969 25.679688 21.316406 C 23.214844 21.570312 20.902344 21.964844 18.785156 22.484375 C 18.589844 21.550781 18.421875 20.632812 18.316406 19.753906 Z M 8 32 C 8 29.398438 11.46875 26.695312 17.316406 24.941406 C 17.921875 27.21875 18.753906 29.59375 19.789062 32 C 18.753906 34.40625 17.921875 36.78125 17.316406 39.058594 C 11.46875 37.304688 8 34.601562 8 32 Z M 29.097656 50.132812 C 25.566406 53.050781 22.4375 54.121094 20.5 53.066406 C 18.566406 52.011719 17.769531 48.796875 18.316406 44.246094 C 18.421875 43.367188 18.589844 42.449219 18.785156 41.519531 C 20.902344 42.035156 23.214844 42.433594 25.675781 42.683594 C 27.238281 44.960938 28.890625 47.035156 30.585938 48.816406 C 30.089844 49.28125 29.59375 49.722656 29.097656 50.132812 Z M 45.683594 44.246094 C 46.230469 48.796875 45.433594 52.011719 43.5 53.0625 C 41.566406 54.121094 38.433594 53.050781 34.902344 50.132812 C 34.40625 49.722656 33.910156 49.28125 33.414062 48.8125 C 35.105469 47.03125 36.757812 44.957031 38.320312 42.683594 C 40.785156 42.429688 43.097656 42.035156 45.214844 41.515625 C 45.410156 42.449219 45.578125 43.367188 45.683594 44.246094 Z M 46.683594 39.058594 C 46.078125 36.78125 45.246094 34.40625 44.210938 32 C 45.246094 29.59375 46.078125 27.21875 46.683594 24.941406 C 52.53125 26.695312 56 29.398438 56 32 C 56 34.601562 52.53125 37.304688 46.683594 39.058594 Z M 46.683594 39.058594 "/>
</g>
</svg>
