<?xml version="1.0" encoding="utf-8"?>
<svg width="100px" height="111px" version="1.2" viewBox="0 0 99 111" xmlns="http://www.w3.org/2000/svg">
	<linearGradient id="linear0" gradientUnits="userSpaceOnUse" x1="75" y1="19.95738" x2="75" y2="243.62" gradientTransform="matrix(0.372093,0,0,0.372093,0,0)">
	<stop offset="0" style="stop-color:rgb(87.843137%,56.470588%,94.117647%);stop-opacity:1;"/>
	<stop offset="1" style="stop-color:rgb(1.960784%,74.117647%,96.078431%);stop-opacity:1;"/>
	</linearGradient>
  <path fill="url(#linear0)" d="M 49.238 109.693 C 47.778 109.693 46.328 109.31 45.048 108.573 L 31.711 100.677 C 29.719 99.563 30.691 99.169 31.348 98.942 C 34.004 98.012 34.543 97.802 37.378 96.192 C 37.676 96.022 38.066 96.082 38.371 96.262 L 48.617 102.342 C 48.987 102.542 49.512 102.542 49.855 102.342 L 89.805 79.282 C 90.175 79.072 90.415 78.642 90.415 78.202 L 90.415 32.102 C 90.415 31.642 90.175 31.232 89.797 31.002 L 49.863 7.962 C 49.493 7.742 49.003 7.742 48.633 7.962 L 8.707 31.002 C 8.32 31.222 8.074 31.652 8.074 32.092 L 8.074 78.192 C 8.074 78.632 8.314 79.052 8.694 79.262 L 19.634 85.582 C 25.574 88.552 29.204 85.052 29.204 81.532 L 29.204 36.032 C 29.204 35.382 29.714 34.882 30.364 34.882 L 35.424 34.882 C 36.054 34.882 36.574 35.382 36.574 36.032 L 36.574 81.552 C 36.574 89.472 32.254 94.022 24.744 94.022 C 22.434 94.022 20.614 94.022 15.534 91.522 L 5.054 85.482 C 2.464 83.982 0.864 81.182 0.864 78.192 L 0.864 32.092 C 0.864 29.092 2.464 26.292 5.054 24.812 L 45.044 1.742 C 47.574 0.312 50.934 0.312 53.444 1.742 L 93.384 24.822 C 95.964 26.312 97.574 29.102 97.574 32.102 L 97.574 78.202 C 97.574 81.192 95.964 83.982 93.384 85.482 L 53.444 108.552 C 52.164 109.292 50.714 109.672 49.234 109.672"/>
  <path fill="url(#linear0)" d="M 61.578 77.927 C 44.098 77.927 40.433 69.903 40.433 63.173 C 40.433 62.533 40.949 62.023 41.59 62.023 L 46.75 62.023 C 47.32 62.023 47.8 62.438 47.89 63.001 C 48.67 68.259 50.99 70.911 61.56 70.911 C 69.98 70.911 73.56 69.009 73.56 64.544 C 73.56 61.974 72.54 60.064 59.46 58.784 C 48.52 57.704 41.76 55.294 41.76 46.544 C 41.76 38.484 48.56 33.684 59.95 33.684 C 72.74 33.684 79.08 38.124 79.88 47.664 C 79.91 47.994 79.79 48.314 79.57 48.554 C 79.35 48.784 79.04 48.924 78.72 48.924 L 73.53 48.924 C 72.99 48.924 72.52 48.544 72.41 48.024 C 71.16 42.494 68.14 40.724 59.93 40.724 C 50.74 40.724 49.67 43.924 49.67 46.324 C 49.67 49.234 50.93 50.084 63.33 51.724 C 75.61 53.354 81.44 55.654 81.44 64.284 C 81.44 72.984 74.18 77.974 61.52 77.974 M 110.18 29.084 L 111.52 29.084 C 112.62 29.084 112.83 28.314 112.83 27.864 C 112.83 26.684 112.02 26.684 111.57 26.684 L 110.19 26.684 Z M 108.55 25.304 L 111.52 25.304 C 112.54 25.304 114.54 25.304 114.54 27.584 C 114.54 29.174 113.52 29.504 112.91 29.704 C 114.1 29.784 114.18 30.564 114.34 31.664 C 114.42 32.354 114.55 33.544 114.79 33.944 L 112.96 33.944 C 112.91 33.544 112.63 31.344 112.63 31.224 C 112.51 30.734 112.34 30.494 111.73 30.494 L 110.22 30.494 L 110.22 33.954 L 108.55 33.954 Z M 104.98 29.604 C 104.98 33.184 107.87 36.084 111.42 36.084 C 115 36.084 117.89 33.124 117.89 29.604 C 117.89 26.014 114.96 23.164 111.41 23.164 C 107.91 23.164 104.97 25.974 104.97 29.594 M 119.13 29.624 C 119.13 33.864 115.66 37.324 111.43 37.324 C 107.23 37.324 103.73 33.904 103.73 29.624 C 103.73 25.264 107.31 21.924 111.43 21.924 C 115.58 21.924 119.12 25.274 119.12 29.624"/>
</svg>