<?xml version="1.0" encoding="utf-8"?>
<svg width="443px" height="171px" version="1.2" viewBox="0 0 442.37 171" xmlns="http://www.w3.org/2000/svg" xmlns:xlink="http://www.w3.org/1999/xlink" xmlns:bx="https://boxy-svg.com">
  <defs>
    <clipPath id="a">
      <path d="M239.03 226.605l-42.13 24.317c-1.578.91-2.546 2.59-2.546 4.406v48.668c0 1.817.968 3.496 2.546 4.406l42.133 24.336c1.575.907 3.517.907 5.09 0l42.126-24.336c1.57-.91 2.54-2.59 2.54-4.406v-48.668c0-1.816-.97-3.496-2.55-4.406l-42.12-24.317c-.79-.453-1.67-.68-2.55-.68-.88 0-1.76.227-2.55.68"/>
    </clipPath>
    <clipPath id="c">
      <path d="M195.398 307.086c.403.523.907.976 1.5 1.316l36.14 20.875 6.02 3.46c.9.52 1.926.74 2.934.665.336-.027.672-.09 1-.183l44.434-81.36c-.34-.37-.738-.68-1.184-.94l-27.586-15.93-14.582-8.39c-.414-.24-.863-.41-1.32-.53zm0 0"/>
    </clipPath>
    <clipPath id="e">
      <path d="M241.066 225.953c-.707.07-1.398.29-2.035.652l-42.01 24.247 45.3 82.51c.63-.09 1.25-.3 1.81-.624l42.13-24.336c1.3-.754 2.19-2.03 2.46-3.476l-46.18-78.89c-.34-.067-.68-.102-1.03-.102-.14 0-.28.007-.42.02"/>
    </clipPath>
    <linearGradient gradientUnits="userSpaceOnUse" x1="242.592" y1="166.812" x2="242.592" y2="349.187" id="gradient-0" gradientTransform="matrix(0.999979, -0.006399, 0.005599, 0.874959, -0.928988, 25.473887)">
      <stop offset="0" style="stop-color: rgba(5, 189, 245, 1)"/>
      <stop offset="1" style="stop-color: rgb(224, 144, 240);"/>
    </linearGradient>
    <linearGradient id="gradient-1" bx:pinned="true">
      <stop style="stop-color: rgb(5, 189, 245);" offset="0"/>
      <stop style="stop-color: rgb(224, 144, 240);" offset="1"/>
    </linearGradient>
    <linearGradient id="gradient-1-0" gradientUnits="userSpaceOnUse" x1="221.185" y1="0" x2="221.185" y2="170.375" gradientTransform="matrix(1, 0, 0, 1, 0, 0)" xlink:href="#gradient-1"/>
    <linearGradient id="gradient-1-1" gradientUnits="userSpaceOnUse" x1="395.025" y1="105.067" x2="395.025" y2="125.803" gradientTransform="matrix(0.999965, -0.008352, 0.065656, 7.861099, -7.565275, -816.621605)" xlink:href="#gradient-1"/>
  </defs>
  <path fill-rule="evenodd" d="M 94.936 90.55 C 94.936 88.71 93.966 87.02 92.378 86.105 L 50.022 61.735 C 49.307 61.315 48.506 61.095 47.694 61.065 L 47.256 61.065 C 46.444 61.095 45.643 61.315 44.916 61.735 L 2.562 86.105 C 0.984 87.025 0 88.715 0 90.555 L 0.093 156.195 C 0.093 157.105 0.563 157.955 1.363 158.405 C 2.143 158.885 3.123 158.885 3.903 158.405 L 29.083 143.985 C 30.673 143.039 31.643 141.367 31.643 139.545 L 31.643 108.88 C 31.643 107.05 32.613 105.36 34.198 104.45 L 44.918 98.276 C 45.714 97.816 46.588 97.588 47.478 97.588 C 48.354 97.588 49.248 97.814 50.022 98.275 L 60.737 104.447 C 62.323 105.357 63.297 107.047 63.297 108.877 L 63.297 139.54 C 63.297 141.36 64.28 143.04 65.862 143.98 L 91.026 158.39 C 91.816 158.86 92.799 158.86 93.586 158.39 C 94.362 157.94 94.854 157.09 94.854 156.18 Z M 294.804 124.726 C 294.804 125.183 294.561 125.606 294.164 125.832 L 279.616 134.218 C 279.221 134.445 278.733 134.445 278.339 134.218 L 263.789 125.832 C 263.389 125.605 263.149 125.182 263.149 124.726 L 263.149 107.93 C 263.149 107.472 263.389 107.05 263.779 106.82 L 278.319 98.42 C 278.719 98.19 279.209 98.19 279.609 98.42 L 294.159 106.82 C 294.559 107.05 294.799 107.472 294.799 107.93 Z M 298.734 0.324 C 297.94 -0.118 296.974 -0.106 296.19 0.351 C 295.41 0.811 294.928 1.651 294.928 2.561 L 294.928 67.561 C 294.928 68.201 294.588 68.791 294.034 69.111 C 293.484 69.431 292.799 69.431 292.244 69.111 L 281.634 63 C 280.054 62.086 278.108 62.086 276.522 63 L 234.152 87.453 C 232.569 88.363 231.592 90.053 231.592 91.873 L 231.592 140.793 C 231.592 142.623 232.569 144.303 234.152 145.223 L 276.522 169.693 C 278.104 170.603 280.052 170.603 281.639 169.693 L 324.009 145.213 C 325.589 144.293 326.569 142.613 326.569 140.783 L 326.569 18.863 C 326.569 17.007 325.559 15.3 323.939 14.393 Z M 439.827 107.488 C 441.401 106.574 442.37 104.886 442.37 103.066 L 442.37 91.21 C 442.37 89.386 441.4 87.703 439.823 86.785 L 397.723 62.345 C 396.133 61.425 394.183 61.425 392.593 62.345 L 350.233 86.795 C 348.643 87.715 347.673 89.395 347.673 91.225 L 347.673 140.125 C 347.673 141.965 348.663 143.665 350.253 144.575 L 392.343 168.565 C 393.893 169.455 395.793 169.465 397.363 168.595 L 422.823 154.445 C 423.623 153.995 424.133 153.145 424.133 152.225 C 424.133 151.305 423.643 150.445 422.843 149.995 L 380.223 125.535 C 379.423 125.085 378.933 124.235 378.933 123.325 L 378.933 107.985 C 378.933 107.069 379.413 106.225 380.213 105.769 L 393.473 98.119 C 394.263 97.659 395.233 97.659 396.023 98.119 L 409.293 105.769 C 410.083 106.219 410.573 107.069 410.573 107.979 L 410.573 120.039 C 410.573 120.949 411.063 121.799 411.853 122.259 C 412.643 122.709 413.623 122.709 414.413 122.249 Z M 439.827 107.488" style="fill: url(#gradient-1-0);"/>
  <path fill-rule="evenodd" d="M394.538 105.2c.3-.177.676-.177.98 0l8.13 4.69c.304.176.49.5.49.85v9.39c0 .35-.186.674-.49.85l-8.13 4.69c-.304.177-.68.177-.98 0l-8.125-4.69c-.31-.176-.5-.5-.5-.85v-9.39c0-.35.18-.674.49-.85zm0 0" style="fill: url(#gradient-1-1);"/>
  <g clip-path="url(#a)" transform="translate(-78.306 -164.016)">
    <path d="M 331.363 246.793 C 307.865 239.45 210.316 187.874 212.648 188.603 L 151.778 312.777 L 270.49 370.97 L 331.363 246.793 Z M 331.363 246.793" style="fill: url(#gradient-0);"/>
  </g>
  <g clip-path="url(#c)" transform="translate(-78.306 -164.016)"/>
  <g clip-path="url(#e)" transform="translate(-78.306 -164.016)"/>
</svg>